<?xml version="1.0" encoding="UTF-8"?>
<svg version="1.1" xmlns="http://www.w3.org/2000/svg" width="352" height="352">
<path d="M0 0 C116.16 0 232.32 0 352 0 C352 116.16 352 232.32 352 352 C235.84 352 119.68 352 0 352 C0 235.84 0 119.68 0 0 Z " fill="#FBFCFB" transform="translate(0,0)"/>
<path d="M0 0 C12.46830012 9.29467951 19.5448236 19.7860781 23 35 C23.27674561 36.12245117 23.27674561 36.12245117 23.55908203 37.26757812 C24.09115165 40.56487777 23.95375646 43.58232508 23.78125 46.91796875 C23.73447456 48.26879581 23.69028737 49.6197145 23.6484375 50.97070312 C23.58097783 53.07490718 23.50080184 55.17399966 23.37597656 57.27563477 C23.25905703 59.32390073 23.20304528 61.36704102 23.15625 63.41796875 C23.10275391 64.63250732 23.04925781 65.8470459 22.99414062 67.09838867 C24.48679095 77.67836414 41.76518051 89.88836037 49.05712891 97.15478516 C50.67291732 98.76865145 52.28847603 100.38274776 53.90382385 101.99705505 C57.36609468 105.4561792 60.82990935 108.91374712 64.29494095 112.37010574 C69.77795792 117.83953888 75.25710368 123.3128392 80.73568726 128.78671265 C88.41904498 136.46275318 96.10379232 144.1373992 103.79003906 151.81054688 C104.27656481 152.29624481 104.76309056 152.78194275 105.26435952 153.28235881 C108.71785679 156.72995552 112.17142121 160.17748496 115.625 163.625 C119.57361524 167.56668416 123.52219837 171.50840048 127.47070312 175.45019531 C128.20050103 176.17875103 128.20050103 176.17875103 128.94504233 176.92202504 C137.07080664 185.03408154 145.19456944 193.14813919 153.31697595 201.26355779 C158.75953643 206.70114661 164.20452333 212.13629028 169.65140176 217.56955361 C173.04139377 220.95207036 176.4292984 224.33667193 179.81664848 227.72183418 C181.38345877 229.28677748 182.95113077 230.85085859 184.51974297 232.41399574 C186.6670811 234.55407635 188.8112674 236.69726819 190.95474243 238.84121704 C191.57021993 239.45309958 192.18569743 240.06498212 192.81982577 240.69540656 C196.53892104 244.42326691 200.05679481 248.27783615 203.48907888 252.27164972 C205.30970549 254.35427368 207.24832656 256.27940073 209.25 258.1875 C213.89326224 262.79483758 216.36243594 266.3693338 217 273 C217.06445312 273.65871094 217.12890625 274.31742187 217.1953125 274.99609375 C217.61918175 282.92244868 215.21283049 290.55283516 210.375 296.875 C204.3842931 303.04409023 197.96120825 305.30899078 189.4375 305.625 C180.32156167 305.72312635 174.28357701 301.46338965 167.86669922 295.33666992 C166.00145913 293.4775087 164.14883643 291.61012976 162.3046875 289.73046875 C161.30379886 288.72464177 160.30208344 287.7196369 159.29959106 286.71540833 C157.21100929 284.61923178 155.12901186 282.51681845 153.05224609 280.40893555 C150.41056117 277.72770565 147.75825068 275.05732611 145.10157585 272.39095592 C142.5407726 269.82010463 139.98486723 267.24440766 137.4296875 264.66796875 C136.95262234 264.18750784 136.47555717 263.70704693 135.98403549 263.2120266 C127.52415142 254.67949319 127.52415142 254.67949319 123.6340332 250.12304688 C119.10114855 244.85467686 114.12522162 240.01444508 109.19637489 235.1212101 C107.39021123 233.32796566 105.58732661 231.53147959 103.78520203 229.73417664 C99.96379128 225.92411083 96.13843834 222.1180186 92.3125 218.3125 C87.86480738 213.8884742 83.41878158 209.46279916 78.97694969 205.03288841 C77.20643276 203.2688211 75.43291725 201.50780747 73.65925598 199.74690247 C72.56997087 198.66125112 71.48082661 197.57545843 70.3918457 196.48950195 C69.9029335 196.00575607 69.4140213 195.52201019 68.91029358 195.02360535 C66.05278445 192.16653589 63.46694196 189.19959794 61 186 C58.15264427 187.28178358 56.22462516 188.56060323 54.14233398 190.88110352 C53.61108414 191.46399643 53.07983429 192.04688934 52.53248596 192.64744568 C51.96360153 193.28070267 51.3947171 193.91395966 50.80859375 194.56640625 C45.54999767 200.30967761 40.1820417 205.9116244 34.66015625 211.40234375 C33.95611664 212.10308014 33.25207703 212.80381653 32.52670288 213.52578735 C30.37396801 215.66505137 28.21868953 217.80171834 26.0625 219.9375 C23.17537298 222.79776705 20.29178749 225.66154114 17.41015625 228.52734375 C16.76836929 229.16083237 16.12658234 229.79432098 15.46534729 230.44700623 C12.47112348 233.42514695 9.58485517 236.43831428 6.83911133 239.64770508 C1.57319302 245.74132497 -4.16718137 251.39413441 -9.8359375 257.109375 C-10.44714069 257.72590187 -11.05834389 258.34242874 -11.68806839 258.97763824 C-14.91776006 262.23388302 -18.15099938 265.48656198 -21.38671875 268.73681641 C-24.04906261 271.41253601 -26.70393162 274.09535155 -29.35253906 276.78466797 C-32.57196173 280.05353949 -35.80360969 283.30984069 -39.04430008 286.55762482 C-40.26926678 287.78927268 -41.49000102 289.02514623 -42.70621872 290.26543427 C-56.20214972 304.0133323 -56.20214972 304.0133323 -66.66015625 305.53125 C-76.1452335 305.44413104 -81.76554191 304.17570144 -88.75 297.75 C-94.35373505 291.80082923 -97.06725273 284.99479337 -97.375 276.875 C-97.42398438 276.00617188 -97.47296875 275.13734375 -97.5234375 274.2421875 C-95.55632577 262.05783873 -85.91850639 254.28670538 -77.5390625 246.0859375 C-76.10449201 244.66325768 -74.67111124 243.23937731 -73.23886108 241.81436157 C-69.48110218 238.08123808 -65.7090172 234.36294502 -61.9331665 230.64813232 C-56.62050084 225.41610421 -51.32753859 220.16413317 -46.03256226 214.91421509 C-43.21857105 212.12424116 -40.39916428 209.33992945 -37.57510376 206.56015015 C-32.07949425 201.14010664 -26.63056417 195.76401647 -21.63775635 189.86978149 C-18.07822573 185.80596304 -14.17736734 182.05674569 -10.34765625 178.25 C-9.44752304 177.35128174 -8.54738983 176.45256348 -7.61997986 175.52661133 C-5.25288737 173.16413425 -2.88365361 170.80384888 -0.51330566 168.44464111 C1.91550742 166.02614819 4.34141103 163.60474054 6.76757812 161.18359375 C11.50907369 156.45307046 16.25341898 151.72542027 21 147 C19.37915347 143.55598213 17.57463755 141.39328482 14.8125 138.75 C11.9673456 136.01944902 9.30322728 133.22155762 6.73828125 130.23046875 C2.85259704 125.75057747 -1.32323797 121.64005358 -5.625 117.5625 C-6.73101562 116.48452148 -6.73101562 116.48452148 -7.859375 115.38476562 C-8.93832031 114.36092773 -8.93832031 114.36092773 -10.0390625 113.31640625 C-11.00126709 112.39516968 -11.00126709 112.39516968 -11.98291016 111.45532227 C-14.37737081 109.72772847 -16.07314356 109.27828182 -19 109 C-20.91579945 109.47792427 -22.83079278 109.96076304 -24.73339844 110.48876953 C-39.49216992 113.81760058 -55.01556002 111.15109101 -67.75 103.25 C-69.18815171 102.19535541 -70.6044133 101.1103573 -72 100 C-72.80953125 99.37609375 -73.6190625 98.7521875 -74.453125 98.109375 C-87.32885094 87.4454302 -94.68318 72.9876128 -96.24560547 56.39111328 C-96.80003552 46.95198489 -96.46219871 38.8738694 -93 30 C-88.84440786 30.5180234 -86.91889205 32.72159054 -84.04296875 35.62890625 C-83.57691727 36.0968309 -83.11086578 36.56475555 -82.63069153 37.04685974 C-81.64471718 38.03954918 -80.66234372 39.03582635 -79.68334961 40.03540039 C-78.20982521 41.53970839 -76.72625522 43.03343657 -75.24023438 44.52539062 C-70.45376982 49.35249431 -65.78724884 54.23450511 -61.4309082 59.45678711 C-59.50342961 61.53554367 -57.78192793 62.87191276 -54.94921875 63.3359375 C-54.20285156 63.34882812 -53.45648438 63.36171875 -52.6875 63.375 C-51.94886719 63.40335937 -51.21023437 63.43171875 -50.44921875 63.4609375 C-44.41254872 62.32484968 -39.79542972 57.2006139 -35.4375 53.125 C-34.88642578 52.62097656 -34.33535156 52.11695313 -33.76757812 51.59765625 C-27.28835915 45.97665945 -27.28835915 45.97665945 -23.44140625 38.65625 C-23.50134766 37.58890625 -23.50134766 37.58890625 -23.5625 36.5 C-23.58441406 35.7884375 -23.60632813 35.076875 -23.62890625 34.34375 C-24.74977838 27.26455759 -27.62569484 23.88262587 -32.6875 19.125 C-33.96674213 17.88868002 -35.24410754 16.65041504 -36.51953125 15.41015625 C-37.4314624 14.52674561 -37.4314624 14.52674561 -38.36181641 13.62548828 C-40.87620953 11.13058076 -43.13407059 8.447079 -45.40625 5.734375 C-47.82197187 3.1055012 -50.5845941 0.92742969 -53.3984375 -1.26171875 C-55.39574352 -3.4295265 -55.65600604 -5.11536497 -56 -8 C-37.65929764 -15.9209203 -15.96824335 -10.6712508 0 0 Z " fill="#396184" transform="translate(119,30)"/>
<path d="M0 0 C-1.30979638 2.83685756 -2.75638873 5.08843357 -4.8125 7.4375 C-5.53373047 8.27087891 -5.53373047 8.27087891 -6.26953125 9.12109375 C-8.4468452 11.48517504 -10.71605365 13.73835159 -13 16 C-15.66913842 18.6433531 -18.33513287 21.28984142 -21 23.9375 C-22.04800781 24.97293945 -22.04800781 24.97293945 -23.1171875 26.02929688 C-25.09820994 28.00097487 -27.05516867 29.99266642 -29 32 C-29.52875732 32.53334961 -30.05751465 33.06669922 -30.60229492 33.61621094 C-32.95017812 36.15333893 -33.96385109 37.76228476 -34.48828125 41.2109375 C-34.43027344 42.25507812 -34.37226563 43.29921875 -34.3125 44.375 C-34.24482422 45.96441406 -34.24482422 45.96441406 -34.17578125 47.5859375 C-34.11777344 48.38257813 -34.05976563 49.17921875 -34 50 C-32.515 50.495 -32.515 50.495 -31 51 C-29.45703125 52.6015625 -29.45703125 52.6015625 -27.8125 54.625 C-24.75081975 58.23571573 -21.52855816 61.36111117 -17.89453125 64.390625 C-16 66 -16 66 -14.51171875 67.546875 C-11.59158401 70.47523547 -9.13639875 71.43813821 -5.125 71.75 C-1.33615175 71.4575275 0.69345635 70.87236935 3.484375 68.29296875 C4.16935059 67.6602002 4.85432617 67.02743164 5.56005859 66.37548828 C11.51753627 60.57538244 17.3552672 54.65671257 23.18017578 48.72387695 C24.91529364 46.95874547 26.65642841 45.19973315 28.3984375 43.44140625 C28.93173676 42.89464737 29.46503601 42.34788849 30.01449585 41.78456116 C31.30552223 40.48471482 32.64844033 39.23678457 34 38 C34.66 38 35.32 38 36 38 C41.13036366 48.39814778 41.9955363 61.11699301 38.8125 72.3125 C38.23911364 73.88655581 37.63151367 75.44835117 37 77 C36.566875 78.15113281 36.13375 79.30226563 35.6875 80.48828125 C34.48455516 83.66993365 33.25384285 86.83813542 32 90 C31.34 90 30.68 90 30 90 C29.62875 91.08667969 29.62875 91.08667969 29.25 92.1953125 C23.95687675 104.07175778 10.59715968 112.19931529 -1 117 C-6.88991224 119.09467759 -12.20547468 119.30288165 -18.375 119.25 C-19.71691406 119.26160156 -19.71691406 119.26160156 -21.0859375 119.2734375 C-26.25547717 119.25840977 -30.91943914 118.77339283 -35.91650391 117.42871094 C-38.41925433 116.91373206 -40.4451806 116.77175333 -43 117 C-45.0600296 118.34017204 -45.0600296 118.34017204 -46.87231445 120.3046875 C-47.95286858 121.38580811 -47.95286858 121.38580811 -49.05525208 122.48876953 C-49.8169017 123.27622559 -50.57855133 124.06368164 -51.36328125 124.875 C-52.15526413 125.67405762 -52.94724701 126.47311523 -53.76322937 127.29638672 C-56.29161426 129.85277343 -58.80207165 132.42598917 -61.3125 135 C-63.02293634 136.73551131 -64.73451151 138.46990103 -66.44726562 140.203125 C-70.64481483 144.45582077 -74.82777217 148.72246715 -79 153 C-82.13738154 151.60919475 -84.25475281 149.98977796 -86.66699219 147.56005859 C-87.71762848 146.50919571 -87.71762848 146.50919571 -88.78948975 145.43710327 C-89.53442688 144.68184357 -90.27936401 143.92658386 -91.046875 143.1484375 C-91.81807678 142.37440582 -92.58927856 141.60037415 -93.3838501 140.80288696 C-95.84396856 138.33158077 -98.29703848 135.85340817 -100.75 133.375 C-102.41750894 131.69745948 -104.08547232 130.02037055 -105.75390625 128.34375 C-109.8412237 124.23439081 -113.92277696 120.11937353 -118 116 C-117.37332428 115.69929596 -116.74664856 115.39859192 -116.10098267 115.08877563 C-113.89006819 113.94303091 -112.55012008 112.75296375 -110.8359375 110.9609375 C-110.27132812 110.38085938 -109.70671875 109.80078125 -109.125 109.203125 C-108.5475 108.59984375 -107.97 107.9965625 -107.375 107.375 C-106.22082483 106.16998011 -105.06218537 104.96921513 -103.8984375 103.7734375 C-103.38974121 103.24153809 -102.88104492 102.70963867 -102.35693359 102.16162109 C-101 101 -101 101 -99 101 C-98.87733765 100.1352002 -98.87733765 100.1352002 -98.75219727 99.25292969 C-97.76639826 96.30033207 -96.25943534 95.04356089 -93.96484375 92.953125 C-93.15595703 92.19 -92.34707031 91.426875 -91.51367188 90.640625 C-89.80188459 89.05212792 -88.08053008 87.4738763 -86.34960938 85.90625 C-81.94911716 81.94823929 -81.94911716 81.94823929 -79.40673828 76.77929688 C-79.37150313 74.11131563 -79.82108779 71.64755845 -80.53051758 69.07983398 C-81.0713575 66.68388218 -81.12956324 64.5065251 -81.1328125 62.05078125 C-81.13474609 60.65569336 -81.13474609 60.65569336 -81.13671875 59.23242188 C-81.13285156 58.26884766 -81.12898438 57.30527344 -81.125 56.3125 C-81.13080078 54.84973633 -81.13080078 54.84973633 -81.13671875 53.35742188 C-81.13542969 52.43123047 -81.13414062 51.50503906 -81.1328125 50.55078125 C-81.13168457 49.70169189 -81.13055664 48.85260254 -81.12939453 47.9777832 C-81 46 -81 46 -80 45 C-79.7763663 43.58566794 -79.57173524 42.16832382 -79.375 40.75 C-76.47594715 26.29585706 -66.47724903 14.56169135 -54.43359375 6.51171875 C-39.23737247 -2.93233112 -16.93658271 -7.39050882 0 0 Z " fill="#D4A55A" transform="translate(296,22)"/>
<path d="M0 0 C3 0 3 0 5.19921875 2.12890625 C5.63024902 2.58668457 6.0612793 3.04446289 6.50537109 3.51611328 C9.33300768 6.32342709 12.60760231 8.58281976 15.8125 10.9375 C17.85497926 12.45225735 19.89668083 13.96647333 21.9230957 15.50268555 C23.98824894 17.04037881 23.98824894 17.04037881 26.27026367 18.33520508 C29.4643212 20.32257924 31.62253988 21.66710673 32.67651367 25.38891602 C32.89897153 28.239012 32.84678834 30.95874392 32.6875 33.8125 C32.67106445 35.23272461 32.67106445 35.23272461 32.65429688 36.68164062 C32.47703949 42.96346934 31.18030036 48.14714756 29 54 C28.56932396 55.67894563 28.16278591 57.36496059 27.8125 59.0625 C27.65394531 59.81660156 27.49539062 60.57070312 27.33203125 61.34765625 C27.16767578 62.16556641 27.16767578 62.16556641 27 63 C26.34 63 25.68 63 25 63 C25.12979248 63.83958252 25.25958496 64.67916504 25.39331055 65.54418945 C28.65247102 89.11948235 28.65247102 89.11948235 24.21484375 97.28466797 C19.83466467 102.78490553 14.63679301 107.24795664 8.98706055 111.40722656 C6.76655242 113.02269009 6.76655242 113.02269009 5 116 C4.34 116 3.68 116 3 116 C2.67 116.99 2.34 117.98 2 119 C1.34 119 0.68 119 0 119 C0 79.73 0 40.46 0 0 Z " fill="#E6C691" transform="translate(183,5)"/>
<path d="M0 0 C0 38.61 0 77.22 0 117 C-7.11481942 113.44259029 -12.0781262 107.07003348 -17.1640625 101.0546875 C-19.07657998 98.77854157 -19.07657998 98.77854157 -22.19921875 96.6015625 C-25.28557295 93.53152298 -25.42040543 91.0601358 -25.48046875 86.78125 C-25.40814623 84.35327972 -25.30932435 81.92599033 -25.1875 79.5 C-24.71829761 65.0197123 -24.71829761 65.0197123 -28 51 C-28.66 50.34 -29.32 49.68 -30 49 C-33.77181228 41.89266716 -33.86773392 32.51223642 -32.83203125 24.70654297 C-30.53027555 17.21908297 -22.68938252 13.20127327 -16.32617188 9.3984375 C-14.21843328 8.13131673 -12.20947746 6.79534941 -10.203125 5.375 C-2.55121528 0 -2.55121528 0 0 0 Z " fill="#184B75" transform="translate(175,6)"/>
<path d="M0 0 C0 35.64 0 71.28 0 108 C-8.58 108 -17.16 108 -26 108 C-26.57070231 97.61040838 -27.02652174 87.23160522 -27.2953043 76.82973576 C-27.42448981 71.9962641 -27.59861183 67.17426816 -27.88598633 62.34741211 C-29.87214167 28.11582866 -29.87214167 28.11582866 -20.35888672 16.72998047 C-5.34095892 0 -5.34095892 0 0 0 Z " fill="#184C76" transform="translate(175,230)"/>
<path d="M0 0 C3.197484 3.197484 6.39021414 6.39860266 9.57421875 9.609375 C11.27858229 11.32297987 12.9830111 13.03651982 14.6875 14.75 C15.55439453 15.62527344 16.42128906 16.50054687 17.31445312 17.40234375 C18.14267578 18.23378906 18.97089844 19.06523437 19.82421875 19.921875 C20.57791748 20.68081055 21.33161621 21.43974609 22.1081543 22.22167969 C23.88449005 24.06172252 23.88449005 24.06172252 26 25 C26 52.06 26 79.12 26 107 C17.42 107 8.84 107 0 107 C0 71.69 0 36.38 0 0 Z " fill="#C49347" transform="translate(184,231)"/>
<path d="M0 0 C0.66 0 1.32 0 2 0 C3.05971939 1.15432063 4.06208628 2.36159454 5.03515625 3.58984375 C7.66827527 6.71859264 10.15775311 8.90369632 13.62109375 11.06640625 C20.19710777 15.60089545 25.93016277 20.4204363 27.49261475 28.56915283 C29.1826722 43.25883263 27.96400703 58.30186807 27 73 C18.09 73 9.18 73 0 73 C0 48.91 0 24.82 0 0 Z " fill="#1B476D" transform="translate(218,266)"/>
<path d="M0 0 C0 23.76 0 47.52 0 72 C-8.91 72 -17.82 72 -27 72 C-31.11626828 27.96507661 -31.11626828 27.96507661 -21.50390625 16.3125 C-6.84032027 0 -6.84032027 0 0 0 Z " fill="#18456B" transform="translate(140,267)"/>
<path d="M0 0 C1.66712505 0.66551956 3.33369352 1.33243358 5 2 C5.78663025 2.30737595 6.5732605 2.61475189 7.38372803 2.93144226 C14.13575854 5.77121212 20.50997549 9.06232965 25 15 C28.08948405 24.14222465 26.98887134 34.20728993 26.37329102 43.70635986 C26.16658978 47.23736946 26.07693164 50.77129419 25.9765625 54.30664062 C25.76367096 61.21152401 25.42365657 68.10491724 25 75 C14.7938858 69.9447278 4.16076981 63.10299888 0 52 C-3.39963633 35.26357308 -1.30322776 16.90284016 0 0 Z " fill="#D8A95F" transform="translate(254,152)"/>
<path d="M0 0 C0.12682581 7.17143869 0.21436241 14.34258798 0.2746582 21.51489258 C0.29979496 23.95445564 0.33390946 26.39394345 0.37719727 28.83325195 C0.43788229 32.34084646 0.466219 35.8474449 0.48828125 39.35546875 C0.51408768 40.44522507 0.5398941 41.53498138 0.56648254 42.65776062 C0.56929327 50.25424751 0.56929327 50.25424751 -2.24243164 53.9375 C-3.1524292 54.618125 -4.06242676 55.29875 -5 56 C-6.53700783 57.54763155 -8.07346179 59.09581336 -9.609375 60.64453125 C-11.32285347 62.36725036 -13.03639684 64.08990492 -14.75 65.8125 C-15.62527344 66.69615234 -16.50054687 67.57980469 -17.40234375 68.49023438 C-18.64951172 69.74223633 -18.64951172 69.74223633 -19.921875 71.01953125 C-21.06027832 72.16578979 -21.06027832 72.16578979 -22.22167969 73.33520508 C-24 75 -24 75 -25 75 C-25.25574029 67.31608768 -25.45074713 59.63261991 -25.56993389 51.94541168 C-25.62716754 48.37483137 -25.70465813 44.80717699 -25.82983398 41.23828125 C-25.9500622 37.78854593 -26.01525861 34.34160789 -26.04364967 30.88993835 C-26.07364022 28.94379164 -26.15941501 26.99876057 -26.2462616 25.05432129 C-26.25229663 16.33315408 -26.25229663 16.33315408 -22.59658813 12.44140625 C-19.81211575 10.39885934 -17.02177439 8.66533314 -14 7 C-12.86660784 6.24156 -11.73948419 5.47346057 -10.625 4.6875 C-9.75875 4.130625 -8.8925 3.57375 -8 3 C-7.113125 2.4225 -6.22625 1.845 -5.3125 1.25 C-3 0 -3 0 0 0 Z " fill="#D7A85C" transform="translate(105,152)"/>
<path d="M0 0 C3.19614855 1.1749443 5.76129928 2.36518278 8.3828125 4.5390625 C8.98794678 5.03196777 9.59308105 5.52487305 10.21655273 6.03271484 C11.51522561 7.11624363 12.81152673 8.20262005 14.10571289 9.29150391 C18.05676819 12.57448307 21.87128026 14.98232454 26.4375 17.375 C29.32512367 19.40623453 30.73447529 20.84785996 31.53564453 24.32421875 C32.63384208 33.85224254 32.503029 43.82634063 27.1796875 52.08203125 C25.38521635 54.99953235 25.22014449 57.62445115 25 61 C21.47930015 60.41321669 19.28700157 59.64350079 16 58 C16 53.71 16 49.42 16 45 C15.34 45 14.68 45 14 45 C14 48.63 14 52.26 14 56 C9.9556968 54.77730368 6.33533587 53.63227181 3 51 C2.4765625 48.00390625 2.4765625 48.00390625 2.625 44.5625 C2.67527344 42.86287109 2.67527344 42.86287109 2.7265625 41.12890625 C2.94742343 38.6016262 3.34919005 36.43226431 4 34 C3.84311576 31.87183587 3.84311576 31.87183587 3 30 C2.01 29.34 1.02 28.68 0 28 C-0.34057617 25.20263672 -0.34057617 25.20263672 -0.29296875 21.6796875 C-0.28330078 20.42285156 -0.27363281 19.16601562 -0.26367188 17.87109375 C-0.23853516 16.55238281 -0.21339844 15.23367187 -0.1875 13.875 C-0.17245483 12.53517097 -0.15876613 11.19532596 -0.14648438 9.85546875 C-0.11102872 6.56991158 -0.06160849 3.28515418 0 0 Z " fill="#BA8B47" transform="translate(184,6)"/>
<path d="M0 0 C0.99 0.99 1.98 1.98 3 3 C3.33 2.01 3.66 1.02 4 0 C6.97 0.99 9.94 1.98 13 3 C12.98839844 3.92683594 12.97679687 4.85367188 12.96484375 5.80859375 C12.95582031 7.00613281 12.94679687 8.20367187 12.9375 9.4375 C12.92589844 10.63246094 12.91429687 11.82742187 12.90234375 13.05859375 C12.66098208 15.88873341 12.66098208 15.88873341 14 17 C14 12.38 14 7.76 14 3 C14.99 3.99 15.98 4.98 17 6 C19.30988315 6.74386068 21.64315944 7.42190703 24 8 C24.34338269 12.03900524 24.61546349 16.07981023 24.875 20.125 C24.97296875 21.26710938 25.0709375 22.40921875 25.171875 23.5859375 C25.65282125 31.85821303 25.65282125 31.85821303 23.77441406 35.14355469 C22.1953125 36.8046875 22.1953125 36.8046875 19 39 C18.01 39 17.02 39 16 39 C16 37.68 16 36.36 16 35 C15.34 35 14.68 35 14 35 C14 35.99 14 36.98 14 38 C9.87248551 37.39301257 6.6678852 35.96189209 3 34 C3 30.04 3 26.08 3 22 C2.34 22 1.68 22 1 22 C-0.17700048 17.37540756 -0.11408412 12.92133538 -0.0625 8.1875 C-0.05573242 7.00510742 -0.05573242 7.00510742 -0.04882812 5.79882812 C-0.03711312 3.86585239 -0.01917998 1.93291607 0 0 Z " fill="#D7B576" transform="translate(184,66)"/>
<path d="M0 0 C5.41790045 2.70895022 9.38240636 6.67116528 13.70117188 10.83618164 C14.72773459 11.81468491 15.76749008 12.77954445 16.8203125 13.72973633 C18.356256 15.11782597 19.84333272 16.54581926 21.328125 17.98828125 C22.2243457 18.82915283 23.12056641 19.67002441 24.04394531 20.53637695 C26 24 26 24 26 37 C17.42 37 8.84 37 0 37 C0 24.79 0 12.58 0 0 Z " fill="#B4843F" transform="translate(253,302)"/>
<path d="M0 0 C0 11.88 0 23.76 0 36 C-8.25 36 -16.5 36 -25 36 C-26.35689892 25.06279829 -26.35689892 25.06279829 -22.87597656 19.77099609 C-20.01700665 16.50581651 -16.83464049 13.60084417 -13.625 10.6875 C-12.53099952 9.64164981 -11.43982294 8.59283732 -10.3515625 7.54101562 C-2.44502004 0 -2.44502004 0 0 0 Z " fill="#B27F38" transform="translate(105,302)"/>
<path d="M0 0 C0 11.55 0 23.1 0 35 C-4.67374514 32.66312743 -7.63772998 29.76639673 -11.3125 26.125 C-11.97056641 25.49980469 -12.62863281 24.87460938 -13.30664062 24.23046875 C-14.23186523 23.31587891 -14.23186523 23.31587891 -15.17578125 22.3828125 C-15.74208252 21.82996582 -16.30838379 21.27711914 -16.8918457 20.70751953 C-18 19 -18 19 -17.88330078 17.01806641 C-16.82542611 14.60115318 -15.56104954 13.18863845 -13.69140625 11.328125 C-12.69463867 10.33232422 -12.69463867 10.33232422 -11.67773438 9.31640625 C-10.97970703 8.63449219 -10.28167969 7.95257813 -9.5625 7.25 C-8.86833984 6.55261719 -8.17417969 5.85523438 -7.45898438 5.13671875 C-2.26697805 0 -2.26697805 0 0 0 Z " fill="#235988" transform="translate(245,158)"/>
<path d="M0 0 C1.94921875 0.8125 1.94921875 0.8125 4 2 C5.40540541 7.18918919 5.40540541 7.18918919 4 10 C3.92907158 12.2072923 3.91584975 14.41667452 3.9375 16.625 C3.95103516 18.40777344 3.95103516 18.40777344 3.96484375 20.2265625 C3.97644531 21.14179687 3.98804688 22.05703125 4 23 C7.3 24.65 10.6 26.3 14 28 C14 24.37 14 20.74 14 17 C14.66 17 15.32 17 16 17 C16 21.29 16 25.58 16 30 C18.97 30.99 21.94 31.98 25 33 C24.938125 31.96875 24.87625 30.9375 24.8125 29.875 C25.01135595 25.76531027 25.94467803 23.51117504 28 20 C28.85712696 22.39995548 29.22584094 23.51605512 28.125 25.875 C27.75375 26.57625 27.3825 27.2775 27 28 C26.61709538 29.99110401 26.27395385 31.99100513 26 34 C25.34 34 24.68 34 24 34 C24 35.98 24 37.96 24 40 C19.25 39.125 19.25 39.125 17 38 C17 42.29 17 46.58 17 51 C16.67 51 16.34 51 16 51 C15.67 46.38 15.34 41.76 15 37 C14.67 40.96 14.34 44.92 14 49 C13.34 48.67 12.68 48.34 12 48 C12.33 43.71 12.66 39.42 13 35 C11.35 34.67 9.7 34.34 8 34 C6.68 33.34 5.36 32.68 4 32 C4 36.29 4 40.58 4 45 C3.67 45 3.34 45 3 45 C2.95101562 44.31292969 2.90203125 43.62585938 2.8515625 42.91796875 C2.77679688 42.01691406 2.70203125 41.11585937 2.625 40.1875 C2.55539063 39.29417969 2.48578125 38.40085938 2.4140625 37.48046875 C2.13354964 34.75601501 2.13354964 34.75601501 0 32 C-0.17112002 29.52943177 -0.23253124 27.17496079 -0.1953125 24.70703125 C-0.1924826 24.00100266 -0.18965271 23.29497406 -0.18673706 22.56755066 C-0.17555464 20.31569367 -0.1504542 18.06423648 -0.125 15.8125 C-0.11496767 14.28451096 -0.10584226 12.75651567 -0.09765625 11.22851562 C-0.07562172 7.48552337 -0.04110567 3.74282944 0 0 Z " fill="#CFB17D" transform="translate(184,34)"/>
<path d="M0 0 C0.33 0 0.66 0 1 0 C0.99476318 0.60473145 0.98952637 1.20946289 0.98413086 1.83251953 C0.96322642 4.59666894 0.95029721 7.36080165 0.9375 10.125 C0.92493164 11.55199219 0.92493164 11.55199219 0.91210938 13.0078125 C0.8954763 17.79813899 1.02494438 22.28841737 2 27 C2.60476176 30.21778897 2.80436837 32.79789663 2 36 C-1.23224569 40.69330345 -5.16098891 44.53320255 -9.60546875 48.078125 C-13.59270324 51.27831973 -16.88731275 55.06489175 -19.4375 59.5 C-21.74997653 63.19996244 -24.85921674 65.99697039 -28 69 C-31.81486034 72.48700414 -31.81486034 72.48700414 -34 77 C-35.98 74.69 -37.96 72.38 -40 70 C-38.02 69.505 -38.02 69.505 -36 69 C-34.3307156 67.70857783 -34.3307156 67.70857783 -32.8359375 66.05859375 C-32.27132812 65.47529297 -31.70671875 64.89199219 -31.125 64.29101562 C-30.5475 63.67935547 -29.97 63.06769531 -29.375 62.4375 C-28.22073345 61.22348618 -27.06208966 60.01361428 -25.8984375 58.80859375 C-25.38974121 58.27032959 -24.88104492 57.73206543 -24.35693359 57.17749023 C-23 56 -23 56 -21 56 C-20.9182251 55.40751465 -20.8364502 54.8150293 -20.75219727 54.20458984 C-19.766551 51.31579212 -18.42236812 50.50592119 -15.96484375 48.7265625 C-6.26973787 41.1335149 -6.26973787 41.1335149 -1.18408203 30.28515625 C-0.39639066 22.51934176 -1.07927802 14.65374264 -1.94140625 6.92236328 C-2.00180506 3.90997262 -1.6026907 2.50382336 0 0 Z " fill="#CD9C55" transform="translate(218,67)"/>
<path d="M0 0 C0 0.66 0 1.32 0 2 C0.66 2.33 1.32 2.66 2 3 C0 4 0 4 -3.25 3.875 C-18.02308692 3.8218594 -33.8995318 10.08879567 -44.53515625 20.421875 C-46.50779665 22.54706626 -48.32288814 24.62891082 -50 27 C-50.39832031 27.56074219 -50.79664063 28.12148438 -51.20703125 28.69921875 C-54.84131072 34.11220902 -56.96946495 39.82898846 -59 46 C-59.66 46 -60.32 46 -61 46 C-60.95305308 33.86422175 -56.27623616 25.84729159 -48 17.3125 C-34.09019623 3.62348676 -19.13851734 -0.6483563 0 0 Z " fill="#AC7936" transform="translate(279,20)"/>
<path d="M0 0 C4.26911577 0.49640247 6.28234524 2.92032348 9.22753906 5.88696289 C9.73530884 6.39429459 10.24307861 6.90162628 10.76623535 7.42433167 C12.43990925 9.10009267 14.10271128 10.78622269 15.765625 12.47265625 C16.92510527 13.63773273 18.08525042 14.80214786 19.24603271 15.96592712 C22.29732787 19.02866897 25.33950625 22.10031331 28.37988281 25.17388916 C31.4847856 28.30949644 34.5982131 31.43661367 37.7109375 34.56445312 C43.81567432 40.70135102 49.91080744 46.84767857 56 53 C55.67 53.99 55.34 54.98 55 56 C50.94374064 55.46416884 49.06415346 53.43776033 46.234375 50.59765625 C45.34492188 49.70755859 44.45546875 48.81746094 43.5390625 47.90039062 C42.61867187 46.96388672 41.69828125 46.02738281 40.75 45.0625 C39.80526206 44.11986651 38.85995548 43.17780257 37.9140625 42.23632812 C31 35.26683218 31 35.26683218 31 33 C30.13375 32.62488281 30.13375 32.62488281 29.25 32.2421875 C26.69783995 30.83318248 25.02276938 29.21888237 23 27.125 C22.34 26.44695312 21.68 25.76890625 21 25.0703125 C20.34 24.38710937 19.68 23.70390625 19 23 C18.2575 22.29617187 17.515 21.59234375 16.75 20.8671875 C15 19 15 19 15 17 C14.34 17 13.68 17 13 17 C11.64613064 15.34997172 10.31321858 13.6825613 9 12 C8.34 11.67 7.68 11.34 7 11 C7 10.34 7 9.68 7 9 C6.34 9 5.68 9 5 9 C5 8.34 5 7.68 5 7 C4.34 7 3.68 7 3 7 C3 6.34 3 5.68 3 5 C2.34 5 1.68 5 1 5 C0.67 3.35 0.34 1.7 0 0 Z " fill="#245A86" transform="translate(157,119)"/>
<path d="M0 0 C3.67734179 1.8386709 4.89118212 2.74143186 7.375 5.75 C10.4263013 9.3614754 13.61657344 12.69909604 17 16 C15.988459 19.034623 14.93011933 20.23852263 12.66796875 22.39453125 C11.33330622 23.679183 10.03020504 24.99659413 8.73828125 26.32421875 C7.53751953 27.55591797 7.53751953 27.55591797 6.3125 28.8125 C5.54550781 29.60269531 4.77851562 30.39289063 3.98828125 31.20703125 C2 33 2 33 0 33 C0 22.11 0 11.22 0 0 Z " fill="#29618C" transform="translate(114,159)"/>
<path d="M0 0 C0.33 0 0.66 0 1 0 C1.44374293 12.868545 -0.86344338 24.19768289 -6 36 C-6.66 36 -7.32 36 -8 36 C-8.2475 36.72445312 -8.495 37.44890625 -8.75 38.1953125 C-13.50449756 48.86321639 -25.10385103 56.88024398 -35.6171875 61.2890625 C-39.99044424 62.59387025 -44.45882583 62.83023648 -49 63 C-48.67 62.01 -48.34 61.02 -48 60 C-45.8828125 59.296875 -45.8828125 59.296875 -43.125 58.75 C-30.17103473 55.52410982 -19.8270106 46.35308046 -12.671875 35.390625 C-11.13603554 33.1945181 -9.56340309 31.5776372 -7.625 29.75 C-3.84312354 25.58893804 -4.31823376 20.57658726 -4.30078125 15.20703125 C-3.96924435 11.67207292 -3.20052868 10.65756156 -1 8 C-0.43672257 5.88181743 -0.43672257 5.88181743 -0.3125 3.75 C-0.209375 2.5125 -0.10625 1.275 0 0 Z " fill="#B57F3A" transform="translate(334,76)"/>
<path d="M0 0 C5.15187505 -0.41750669 8.6907741 0.87922432 13.125 3.3125 C13.77662109 3.66715332 14.42824219 4.02180664 15.09960938 4.38720703 C27.74118769 11.58674005 38.22149715 22.17291582 42.375 36.3125 C42.94717499 38.53403159 43.49194809 40.76293271 44 43 C44.1959375 43.82242188 44.391875 44.64484375 44.59375 45.4921875 C45.88974801 53.49248292 45.27594296 62.02535649 44 70 C43.34 70 42.68 70 42 70 C41.970271 69.0553186 41.970271 69.0553186 41.93994141 68.09155273 C41.84401103 65.2064864 41.7346103 62.3220777 41.625 59.4375 C41.5940625 58.44685547 41.563125 57.45621094 41.53125 56.43554688 C41.21234596 48.43637048 39.40457913 41.79398555 36.5625 34.3125 C36.15128906 33.21550781 35.74007812 32.11851563 35.31640625 30.98828125 C34.12310733 28.27945728 32.79616155 26.31982381 31 24 C31 23.34 31 22.68 31 22 C30.34 22 29.68 22 29 22 C28.04540752 20.86415578 27.13729483 19.68915801 26.25 18.5 C19.72731058 10.80131207 9.48177636 6.03416844 0 3 C0 2.01 0 1.02 0 0 Z " fill="#2E5D83" transform="translate(98,22)"/>
<path d="M0 0 C0.99 0.495 0.99 0.495 2 1 C3.49263965 6.65137781 3.11114417 12.57511832 3.0625 18.375 C3.05798828 19.39722656 3.05347656 20.41945313 3.04882812 21.47265625 C3.037103 23.98183194 3.02069176 26.4908849 3 29 C3.66 29 4.32 29 5 29 C5 26.36 5 23.72 5 21 C5.33 21 5.66 21 6 21 C5.89558594 22.11117187 5.79117188 23.22234375 5.68359375 24.3671875 C5.02073544 33.05737899 5.02073544 33.05737899 7.7578125 41.109375 C10.04651714 43.6075543 12.41729115 45.80960136 15 48 C16.36462309 49.36462309 17.72006156 50.73854719 19.0625 52.125 C20.0390252 53.0860248 21.01707603 54.04552077 22 55 C21.01 55.495 21.01 55.495 20 56 C20.33 57.65 20.66 59.3 21 61 C10.75285171 52.42585551 10.75285171 52.42585551 7 48 C7 47.34 7 46.68 7 46 C6.01 45.67 5.02 45.34 4 45 C0.31627848 40.79003255 -0.42345477 37.72352818 -0.23828125 32.34375 C-0.05987108 30.58889582 0.20464391 28.84243404 0.51171875 27.10546875 C1.91458683 18.18322779 1.00203713 8.92886658 0 0 Z " fill="#44759A" transform="translate(137,63)"/>
<path d="M0 0 C1.32 0.66 2.64 1.32 4 2 C3.40576736 2.26924286 2.81153473 2.53848572 2.19929504 2.81588745 C-0.00126803 4.00068272 -1.43198189 5.18425438 -3.1887207 6.94580078 C-3.78646805 7.5404715 -4.38421539 8.13514221 -5.00007629 8.74783325 C-5.95330025 9.71183548 -5.95330025 9.71183548 -6.92578125 10.6953125 C-7.59159714 11.36158661 -8.25741302 12.02786072 -8.94340515 12.71432495 C-10.35193182 14.12587061 -11.75802933 15.53984381 -13.16186523 16.95605469 C-15.28911149 19.10141236 -17.42410443 21.23880434 -19.56054688 23.375 C-20.93276149 24.75213618 -22.30452063 26.1297264 -23.67578125 27.5078125 C-24.30519119 28.13833527 -24.93460114 28.76885803 -25.58308411 29.41848755 C-28.58759198 32.45456359 -31.48971055 35.53073514 -34.26977539 38.77416992 C-38.91576521 44.14315384 -43.97736597 49.10154839 -49.0078125 54.10546875 C-50.0622221 55.15800765 -51.11640698 56.21077172 -52.17037964 57.26374817 C-54.92476375 60.01434591 -57.68213529 62.7619291 -60.44018555 65.5088501 C-63.24188927 68.30030269 -66.04075105 71.09460155 -68.83984375 73.88867188 C-73.76550125 78.80480611 -78.6936145 83.71846645 -83.62356567 88.6302948 C-86.08474335 91.08450339 -88.5428596 93.54174987 -91 96 C-91.66 95.67 -92.32 95.34 -93 95 C-92.48936508 94.49158569 -91.97873016 93.98317139 -91.45262146 93.45935059 C-86.61063345 88.63750628 -81.77113263 83.81317798 -76.93432522 78.98613739 C-74.44835902 76.5053614 -71.9614835 74.02551227 -69.47241211 71.54785156 C-66.60247167 68.69098377 -63.73670258 65.82996269 -60.87109375 62.96875 C-59.98852402 62.09134155 -59.10595428 61.21393311 -58.19664001 60.30993652 C-53.8689986 55.98268408 -49.71404376 51.58979409 -45.72572327 46.94934082 C-42.54016128 43.35099679 -39.1038107 40.00244182 -35.6875 36.625 C-34.91494873 35.85623535 -34.14239746 35.0874707 -33.34643555 34.29541016 C-30.07623964 31.0414017 -26.8000651 27.79343734 -23.52441406 24.54492188 C-21.11834715 22.15704648 -18.71536962 19.76609207 -16.3125 17.375 C-15.58313232 16.65393066 -14.85376465 15.93286133 -14.10229492 15.18994141 C-10.00712785 11.11416478 -6.10242705 6.93591953 -2.33666992 2.55322266 C-1.58412906 1.6787633 -0.81578089 0.81578089 0 0 Z " fill="#E3E8EA" transform="translate(178,215)"/>
<path d="M0 0 C0.66 0.66 1.32 1.32 2 2 C-2.18685526 6.91955493 -6.52855985 11.57887845 -11.140625 16.1015625 C-12.8363743 17.83293679 -14.36448809 19.60741743 -15.875 21.5 C-16.57625 22.325 -17.2775 23.15 -18 24 C-18.66 24 -19.32 24 -20 24 C-20.66 25.32 -21.32 26.64 -22 28 C-22.66 28 -23.32 28 -24 28 C-24.32097656 28.81210938 -24.32097656 28.81210938 -24.6484375 29.640625 C-26.48077943 32.8392797 -28.99796606 35.20964484 -31.625 37.75 C-32.140625 38.25660156 -32.65625 38.76320312 -33.1875 39.28515625 C-34.45383339 40.52803902 -35.7263144 41.76465276 -37 43 C-37.66 42.67 -38.32 42.34 -39 42 C-38.03250577 39.84174363 -37.21906689 38.2099391 -35.5 36.5625 C-33.83640436 35.03950973 -33.83640436 35.03950973 -33.14453125 32.66015625 C-31.87817386 29.71684777 -30.47148711 28.10221496 -28.1875 25.875 C-27.18783203 24.88113281 -27.18783203 24.88113281 -26.16796875 23.8671875 C-24 22 -24 22 -21.65478516 20.66137695 C-18.81141746 18.88198417 -16.70889118 16.93622303 -14.35546875 14.55078125 C-13.51435547 13.70322266 -12.67324219 12.85566406 -11.80664062 11.98242188 C-10.94232422 11.10134766 -10.07800781 10.22027344 -9.1875 9.3125 C-7.86202148 7.97348633 -7.86202148 7.97348633 -6.50976562 6.60742188 C-4.33525271 4.40940071 -2.16555573 2.2068407 0 0 Z " fill="#23547F" transform="translate(142,177)"/>
<path d="M0 0 C1.94921875 0.8125 1.94921875 0.8125 4 2 C5.40540541 7.18918919 5.40540541 7.18918919 4 10 C3.92907158 12.2072923 3.91584975 14.41667452 3.9375 16.625 C3.95103516 18.40777344 3.95103516 18.40777344 3.96484375 20.2265625 C3.97644531 21.14179687 3.98804688 22.05703125 4 23 C5.98 23.99 7.96 24.98 10 26 C9.34 28.31 8.68 30.62 8 33 C6.68 32.67 5.36 32.34 4 32 C4 36.29 4 40.58 4 45 C3.67 45 3.34 45 3 45 C2.95101562 44.31292969 2.90203125 43.62585938 2.8515625 42.91796875 C2.77679688 42.01691406 2.70203125 41.11585937 2.625 40.1875 C2.55539063 39.29417969 2.48578125 38.40085938 2.4140625 37.48046875 C2.13354964 34.75601501 2.13354964 34.75601501 0 32 C-0.17112002 29.52943177 -0.23253124 27.17496079 -0.1953125 24.70703125 C-0.1924826 24.00100266 -0.18965271 23.29497406 -0.18673706 22.56755066 C-0.17555464 20.31569367 -0.1504542 18.06423648 -0.125 15.8125 C-0.11496767 14.28451096 -0.10584226 12.75651567 -0.09765625 11.22851562 C-0.07562172 7.48552337 -0.04110567 3.74282944 0 0 Z " fill="#CCA666" transform="translate(184,34)"/>
<path d="M0 0 C0.103125 0.639375 0.20625 1.27875 0.3125 1.9375 C0.539375 2.618125 0.76625 3.29875 1 4 C1.99 4.33 2.98 4.66 4 5 C5.3540932 6.98600337 6.68457624 8.98817543 8 11 C11.87158735 15.30176372 16.32886007 18.62704288 21 22 C20.67 22.99 20.34 23.98 20 25 C16.31992226 25.5411879 15.13480575 25.09751906 12.0625 22.875 C11.02717514 21.93234105 10.00678715 20.97307918 9 20 C8.47180664 19.50177734 7.94361328 19.00355469 7.39941406 18.49023438 C3.46224662 14.67786217 0.46683149 10.93366299 -2 6 C-2 5.01 -2 4.02 -2 3 C-1.34 3 -0.68 3 0 3 C0 2.01 0 1.02 0 0 Z " fill="#1E4972" transform="translate(34,107)"/>
<path d="M0 0 C0 4.06033256 -1.69069805 5.52075915 -4.32421875 8.49609375 C-10.11215907 15.07398918 -14.80713509 21.78977595 -18 30 C-18.55782121 31.31449534 -19.12024944 32.62704615 -19.6875 33.9375 C-20.120625 34.948125 -20.55375 35.95875 -21 37 C-21.66 37 -22.32 37 -23 37 C-22.95134523 24.42274287 -17.99093724 16.59912787 -9.3125 7.9375 C-6.351853 5.02951273 -3.46700824 2.31133883 0 0 Z " fill="#BF8B45" transform="translate(241,29)"/>
<path d="M0 0 C0.66 0 1.32 0 2 0 C2 38.61 2 77.22 2 117 C-2.0084034 114.9957983 -3.41409657 113.50944037 -6 110 C-3.83125748 110.50603992 -2.00032373 110.99983813 0 112 C0 75.04 0 38.08 0 0 Z " fill="#476A87" transform="translate(173,6)"/>
<path d="M0 0 C0.97646484 0.00644531 1.95292969 0.01289063 2.95898438 0.01953125 C3.96638672 0.03628906 4.97378906 0.05304687 6.01171875 0.0703125 C7.03845703 0.07933594 8.06519531 0.08835937 9.12304688 0.09765625 C11.64867774 0.12115049 14.17382685 0.15400119 16.69921875 0.1953125 C14.69921875 3.1953125 14.69921875 3.1953125 11.22265625 3.92578125 C9.84141828 4.09179543 8.45841753 4.24362646 7.07421875 4.3828125 C6.3678125 4.46466797 5.66140625 4.54652344 4.93359375 4.63085938 C3.19015045 4.83111975 1.44481789 5.01480651 -0.30078125 5.1953125 C-0.30078125 8.30788819 -0.12716501 10.30296935 0.69921875 13.1953125 C-3.65907917 12.69243197 -6.25014759 10.1781543 -9.30078125 7.1953125 C-10.17578125 4.3828125 -10.17578125 4.3828125 -10.30078125 2.1953125 C-6.70642131 0.5581651 -3.94101657 -0.04609376 0 0 Z " fill="#2D5679" transform="translate(73.30078125,19.8046875)"/>
<path d="M0 0 C6 2 6 2 9 4 C9.29296875 7.0390625 9.29296875 7.0390625 9.1875 10.625 C9.16042969 11.81351563 9.13335937 13.00203125 9.10546875 14.2265625 C9.07066406 15.14179687 9.03585938 16.05703125 9 17 C6.03 16.01 3.06 15.02 0 14 C0 9.38 0 4.76 0 0 Z " fill="#296598" transform="translate(188,87)"/>
<path d="M0 0 C3.10343799 1.20689255 6.01193893 2.50596946 9 4 C9 8.29 9 12.58 9 17 C5.22740255 16.05685064 2.98166128 15.43767489 0 13 C-0.48828125 9.86328125 -0.48828125 9.86328125 -0.3125 6.3125 C-0.26738281 5.13300781 -0.22226563 3.95351563 -0.17578125 2.73828125 C-0.11777344 1.83464844 -0.05976563 0.93101563 0 0 Z " fill="#1B456F" transform="translate(188,23)"/>
<path d="M0 0 C2.97 0.99 5.94 1.98 9 3 C9 7.29 9 11.58 9 16 C4 15 4 15 0 13 C0 8.71 0 4.42 0 0 Z " fill="#286092" transform="translate(188,66)"/>
<path d="M0 0 C3.74670984 2.66213594 5.89541254 4.48123313 7 9 C7.77522252 15.44031014 7.04234288 18.72061908 3 24 C1.13699078 25.84739741 -0.78130043 27.64066942 -2.75 29.375 C-4.22726563 30.68597656 -4.22726563 30.68597656 -5.734375 32.0234375 C-6.85585937 33.00183594 -6.85585937 33.00183594 -8 34 C-8.66 33.67 -9.32 33.34 -10 33 C-9.30132812 32.31292969 -8.60265625 31.62585938 -7.8828125 30.91796875 C-6.97273438 30.01691406 -6.06265625 29.11585937 -5.125 28.1875 C-4.22007813 27.29417969 -3.31515625 26.40085937 -2.3828125 25.48046875 C0.77596866 22.19222934 2.28131725 20.22067167 2.25 15.6875 C2.12903482 10.37367241 0.96352696 6.44529044 -2 2 C-1.34 2 -0.68 2 0 2 C0 1.34 0 0.68 0 0 Z " fill="#477097" transform="translate(93,51)"/>
<path d="M0 0 C3.75834356 0.93958589 6.01041148 1.59700889 9 4 C9.48828125 6.91796875 9.48828125 6.91796875 9.3125 10.1875 C9.26738281 11.27417969 9.22226563 12.36085938 9.17578125 13.48046875 C9.11777344 14.31191406 9.05976563 15.14335938 9 16 C5.47930015 15.41321669 3.28700157 14.64350079 0 13 C0 8.71 0 4.42 0 0 Z " fill="#28537B" transform="translate(188,45)"/>
<path d="M0 0 C3.40312738 1.05875074 6.01353231 2.00902154 9 4 C9.29296875 7.0390625 9.29296875 7.0390625 9.1875 10.625 C9.16042969 11.81351563 9.13335937 13.00203125 9.10546875 14.2265625 C9.07066406 15.14179687 9.03585938 16.05703125 9 17 C5.57195811 15.76209599 2.55792798 14.64593009 0 12 C-0.390625 9.08203125 -0.390625 9.08203125 -0.25 5.8125 C-0.21390625 4.72582031 -0.1778125 3.63914063 -0.140625 2.51953125 C-0.09421875 1.68808594 -0.0478125 0.85664063 0 0 Z " fill="#294767" transform="translate(201,31)"/>
<path d="M0 0 C1.64935547 0.10828125 1.64935547 0.10828125 3.33203125 0.21875 C10.83476993 0.69462877 18.27816486 1.12645112 25.80078125 0.9375 C28.02071446 1.00058869 29.86311408 1.42690585 32 2 C33.66623639 2.03786901 35.33397597 2.04627845 37 2 C31.14071327 5.03066555 26.3657769 5.24544652 19.875 5.3125 C18.96234375 5.34150391 18.0496875 5.37050781 17.109375 5.40039062 C10.53688878 5.46124698 5.76748923 4.14114256 0 1 C0 0.67 0 0.34 0 0 Z " fill="#C4934B" transform="translate(258,136)"/>
<path d="M0 0 C3.75402939 0.52139297 6.36841918 1.17781402 9 4 C9.171875 6.69921875 9.171875 6.69921875 8.75 9.6875 C8.62109375 10.68136719 8.4921875 11.67523438 8.359375 12.69921875 C8.24078125 13.45847656 8.1221875 14.21773437 8 15 C4.62537285 14.45276317 2.91765 13.9451 0 12 C-0.29296875 9.1796875 -0.29296875 9.1796875 -0.1875 5.875 C-0.16042969 4.77929688 -0.13335937 3.68359375 -0.10546875 2.5546875 C-0.07066406 1.71164063 -0.03585938 0.86859375 0 0 Z " fill="#325B84" transform="translate(201,52)"/>
<path d="M0 0 C0 11.55 0 23.1 0 35 C-1.485 34.505 -1.485 34.505 -3 34 C-2.01 33.505 -2.01 33.505 -1 33 C-1.495 19.14 -1.495 19.14 -2 5 C-10.93715344 11.63700786 -10.93715344 11.63700786 -16 21 C-16.66 20.34 -17.32 19.68 -18 19 C-17.68832804 15.48792293 -16.13140751 13.75621124 -13.69140625 11.328125 C-12.69463867 10.33232422 -12.69463867 10.33232422 -11.67773438 9.31640625 C-10.97970703 8.63449219 -10.28167969 7.95257813 -9.5625 7.25 C-8.86833984 6.55261719 -8.17417969 5.85523438 -7.45898438 5.13671875 C-2.26697805 0 -2.26697805 0 0 0 Z " fill="#467293" transform="translate(245,158)"/>
<path d="M0 0 C0.33 0 0.66 0 1 0 C1.3690205 13.6332574 1.3690205 13.6332574 -1 20 C-1.763125 19.690625 -2.52625 19.38125 -3.3125 19.0625 C-5.18789677 18.32106407 -7.08684652 17.63771783 -9 17 C-9 20.96 -9 24.92 -9 29 C-9.33 29 -9.66 29 -10 29 C-10.02709444 26.91673869 -10.04643873 24.83337559 -10.0625 22.75 C-10.07410156 21.58984375 -10.08570313 20.4296875 -10.09765625 19.234375 C-10.01659034 16.54947219 -9.77469826 14.53537611 -9 12 C-8.67 10.68 -8.34 9.36 -8 8 C-5.36 9.32 -2.72 10.64 0 12 C0 8.04 0 4.08 0 0 Z " fill="#A7854C" transform="translate(197,28)"/>
<path d="M0 0 C2.31 0.66 4.62 1.32 7 2 C7 6.62 7 11.24 7 16 C4.69 15.01 2.38 14.02 0 13 C0 8.71 0 4.42 0 0 Z " fill="#235C94" transform="translate(201,72)"/>
<path d="M0 0 C0.99386719 0.00902344 1.98773438 0.01804688 3.01171875 0.02734375 C4.15060547 0.04474609 4.15060547 0.04474609 5.3125 0.0625 C4.3225 0.3925 3.3325 0.7225 2.3125 1.0625 C3.76531065 6.38947239 7.39361378 9.42652802 11.3125 13.0625 C10.9825 13.7225 10.6525 14.3825 10.3125 15.0625 C9.70664063 14.32902344 9.10078125 13.59554687 8.4765625 12.83984375 C3.84187667 7.2685264 3.84187667 7.2685264 -2.578125 4.62109375 C-5.05112551 4.90725524 -7.31208246 5.32460434 -9.6875 6.0625 C-9.3575 4.4125 -9.0275 2.7625 -8.6875 1.0625 C-5.53819107 0.01273036 -3.29935544 -0.03881595 0 0 Z " fill="#567B9D" transform="translate(103.6875,133.9375)"/>
<path d="M0 0 C4.99783437 -0.36020428 7.98018872 0.65610065 12.375 3 C13.43460938 3.556875 14.49421875 4.11375 15.5859375 4.6875 C16.38257812 5.120625 17.17921875 5.55375 18 6 C18 7.32 18 8.64 18 10 C13.78224268 8.64474464 9.70578678 7.09799886 5.625 5.375 C4.56539063 4.92898437 3.50578125 4.48296875 2.4140625 4.0234375 C1.61742188 3.68570312 0.82078125 3.34796875 0 3 C0 2.01 0 1.02 0 0 Z " fill="#1D4970" transform="translate(98,22)"/>
<path d="M0 0 C0 4.07143878 -1.54271567 4.96827259 -4.3125 7.875 C-7.91599586 11.66998598 -10.66066934 15.32133867 -13 20 C-14.98 17.69 -16.96 15.38 -19 13 C-18.29101562 13.11085937 -17.58203125 13.22171875 -16.8515625 13.3359375 C-12.80814055 12.85958916 -10.98986387 10.49847678 -8.375 7.625 C-3.24773756 2.16515837 -3.24773756 2.16515837 0 0 Z " fill="#BC8B46" transform="translate(197,124)"/>
<path d="M0 0 C0.33 0 0.66 0 1 0 C1 1.65 1 3.3 1 5 C1.66 5 2.32 5 3 5 C3 9.29 3 13.58 3 18 C2.34 18 1.68 18 1 18 C1.33 25.26 1.66 32.52 2 40 C1.34 40 0.68 40 0 40 C0 26.8 0 13.6 0 0 Z " fill="#E8C586" transform="translate(184,83)"/>
<path d="M0 0 C0.33 0 0.66 0 1 0 C1.71246588 20.66151046 1.71246588 20.66151046 -4 27 C-4.83563865 21.70762186 -5.22303876 17.29983462 -4 12 C-3.505 11.360625 -3.01 10.72125 -2.5 10.0625 C-0.20291516 6.90400834 -0.32144086 3.85729037 0 0 Z " fill="#A4702F" transform="translate(334,76)"/>
<path d="M0 0 C0.33 0 0.66 0 1 0 C3.06946113 8.72130047 2.40738911 18.20381809 1 27 C0.34 27 -0.32 27 -1 27 C-1.22561734 23.06328959 -1.42752827 19.12571465 -1.625 15.1875 C-1.72167969 13.50817383 -1.72167969 13.50817383 -1.8203125 11.79492188 C-1.871875 10.72177734 -1.9234375 9.64863281 -1.9765625 8.54296875 C-2.02893066 7.55321045 -2.08129883 6.56345215 -2.13525391 5.54370117 C-2 3 -2 3 0 0 Z " fill="#2F628A" transform="translate(141,65)"/>
<path d="M0 0 C2.31 0.66 4.62 1.32 7 2 C7.67578125 3.796875 7.67578125 3.796875 8 6 C6.85546875 7.703125 6.85546875 7.703125 5.1875 9.25 C4.64480469 9.77078125 4.10210937 10.2915625 3.54296875 10.828125 C2 12 2 12 0 12 C0 8.04 0 4.08 0 0 Z " fill="#2F6490" transform="translate(201,93)"/>
<path d="M0 0 C5.28 0 10.56 0 16 0 C16 0.66 16 1.32 16 2 C16.66 2.33 17.32 2.66 18 3 C15.703463 4.1482685 14.41686833 4.11561175 11.8671875 4.09765625 C11.06152344 4.09443359 10.25585938 4.09121094 9.42578125 4.08789062 C8.58402344 4.07951172 7.74226563 4.07113281 6.875 4.0625 C6.02550781 4.05798828 5.17601562 4.05347656 4.30078125 4.04882812 C2.20049091 4.03702874 0.1002367 4.01909306 -2 4 C-1.34 2.68 -0.68 1.36 0 0 Z " fill="#AB762C" transform="translate(263,20)"/>
<path d="M0 0 C1.20366211 0.00483398 1.20366211 0.00483398 2.43164062 0.00976562 C3.68170898 0.02233398 3.68170898 0.02233398 4.95703125 0.03515625 C5.80201172 0.03966797 6.64699219 0.04417969 7.51757812 0.04882812 C9.6015928 0.06060222 11.68557102 0.07853735 13.76953125 0.09765625 C11.76953125 3.09765625 11.76953125 3.09765625 9.89013672 3.5300293 C9.14650879 3.55621338 8.40288086 3.58239746 7.63671875 3.609375 C6.83105469 3.64482422 6.02539062 3.68027344 5.1953125 3.71679688 C3.93267578 3.75063477 3.93267578 3.75063477 2.64453125 3.78515625 C1.37029297 3.83639648 1.37029297 3.83639648 0.0703125 3.88867188 C-2.0294798 3.97124798 -4.12995439 4.03612603 -6.23046875 4.09765625 C-6.56046875 3.10765625 -6.89046875 2.11765625 -7.23046875 1.09765625 C-4.46481493 0.17577164 -2.84763173 -0.02019597 0 0 Z " fill="#123D66" transform="translate(76.23046875,19.90234375)"/>
<path d="M0 0 C0.33 0 0.66 0 1 0 C1 12.54 1 25.08 1 38 C-3.0084034 35.9957983 -4.41409657 34.50944037 -7 31 C-4.83125748 31.50603992 -3.00032373 31.99983813 -1 33 C-0.67 22.11 -0.34 11.22 0 0 Z " fill="#4E7BA0" transform="translate(174,85)"/>
<path d="M0 0 C0.99 0.33 1.98 0.66 3 1 C4.125 6.75 4.125 6.75 3 9 C2.92883618 11.37402501 2.91590915 13.75000677 2.9375 16.125 C2.94652344 17.40632813 2.95554688 18.68765625 2.96484375 20.0078125 C2.97644531 20.99523437 2.98804688 21.98265625 3 23 C2.01 23.33 1.02 23.66 0 24 C0 16.08 0 8.16 0 0 Z " fill="#C89A52" transform="translate(185,35)"/>
<path d="M0 0 C2.38771735 2.38771735 2.31289224 3.22854514 2.5625 6.5 C2.81036169 9.87644563 2.81036169 9.87644563 4 13 C-0.32893185 18.18419194 -4.76564995 22.72706118 -10 27 C-10.66 26.67 -11.32 26.34 -12 26 C-11.30132812 25.31292969 -10.60265625 24.62585938 -9.8828125 23.91796875 C-8.97273438 23.01691406 -8.06265625 22.11585937 -7.125 21.1875 C-6.22007813 20.29417969 -5.31515625 19.40085937 -4.3828125 18.48046875 C-0.32693606 14.25836787 0.23893886 12.06641238 0.125 6.3125 C0.09792969 4.54326172 0.09792969 4.54326172 0.0703125 2.73828125 C0.04710938 1.83464844 0.02390625 0.93101563 0 0 Z " fill="#809EB8" transform="translate(95,58)"/>
<path d="M0 0 C0.80695313 0.15339844 1.61390625 0.30679688 2.4453125 0.46484375 C6.59047179 1.0888952 10.6922296 1.34627204 14.875 1.5625 C15.65875 1.60568359 16.4425 1.64886719 17.25 1.69335938 C19.16650649 1.79853351 21.08323333 1.89967925 23 2 C22.67 2.66 22.34 3.32 22 4 C18.72918529 4.02902429 15.4584037 4.04680684 12.1875 4.0625 C11.25873047 4.07087891 10.32996094 4.07925781 9.37304688 4.08789062 C8.48037109 4.09111328 7.58769531 4.09433594 6.66796875 4.09765625 C5.43469849 4.10551147 5.43469849 4.10551147 4.17651367 4.11352539 C2 4 2 4 -1 3 C-0.67 2.01 -0.34 1.02 0 0 Z " fill="#1B4E79" transform="translate(68,136)"/>
<path d="M0 0 C-1.40204309 3.21478567 -3.07097512 5.23914137 -5.625 7.625 C-7.50575752 9.33829787 -7.50575752 9.33829787 -9 11 C-9 11.66 -9 12.32 -9 13 C-10.96147874 14.38938077 -12.96166576 15.7260411 -15 17 C-14.67275789 11.65504553 -11.72499531 9.18835208 -8.0625 5.6875 C-7.51142578 5.13771484 -6.96035156 4.58792969 -6.39257812 4.02148438 C-2.28117236 0 -2.28117236 0 0 0 Z " fill="#2B5173" transform="translate(42,278)"/>
<path d="M0 0 C4.51045941 2.46025059 8.18504423 5.60282037 12 9 C11.67 9.99 11.34 10.98 11 12 C7.96147295 10.59023295 5.4060405 8.91129772 2.75 6.875 C2.04359375 6.33617187 1.3371875 5.79734375 0.609375 5.2421875 C0.07828125 4.83226562 -0.4528125 4.42234375 -1 4 C-0.67 2.68 -0.34 1.36 0 0 Z " fill="#225781" transform="translate(116,29)"/>
<path d="M0 0 C4.0776547 0.12356529 5.84964634 1.61940633 8.5625 4.4375 C9.12066406 5.05496094 9.67882813 5.67242187 10.25390625 6.30859375 C13.74424962 9.68961988 17.26875745 10.35483056 22 11 C22 11.33 22 11.66 22 12 C13.26756677 12.44402203 9.55340976 9.84108261 3 4 C1.125 1.6875 1.125 1.6875 0 0 Z " fill="#21547F" transform="translate(48,84)"/>
<path d="M0 0 C-0.15404113 5.08335725 -3.02068432 7.35754718 -6.50390625 10.64453125 C-6.99761719 11.09183594 -7.49132812 11.53914062 -8 12 C-8.66 11.67 -9.32 11.34 -10 11 C-8.69063102 8.07909997 -7.24380538 6.24380538 -5 4 C-4.67 3.01 -4.34 2.02 -4 1 C-2 0 -2 0 0 0 Z " fill="#174975" transform="translate(113,208)"/>
<path d="M0 0 C0.99 0.495 0.99 0.495 2 1 C1.67 4.3 1.34 7.6 1 11 C2.65 11.33 4.3 11.66 6 12 C6 8.7 6 5.4 6 2 C6.33 2 6.66 2 7 2 C7 6.62 7 11.24 7 16 C4.69 15.01 2.38 14.02 0 13 C0 8.71 0 4.42 0 0 Z " fill="#557996" transform="translate(201,72)"/>
<path d="M0 0 C1.32 0.66 2.64 1.32 4 2 C3.45859375 2.21398437 2.9171875 2.42796875 2.359375 2.6484375 C-0.8392797 4.48077943 -3.20964484 6.99796606 -5.75 9.625 C-6.50990234 10.3984375 -6.50990234 10.3984375 -7.28515625 11.1875 C-8.52803902 12.45383339 -9.76465276 13.7263144 -11 15 C-11.66 14.67 -12.32 14.34 -13 14 C-8.71 9.38 -4.42 4.76 0 0 Z " fill="#D8E0E3" transform="translate(178,215)"/>
<path d="M0 0 C0.33 0.66 0.66 1.32 1 2 C0.51789063 2.53109375 0.03578125 3.0621875 -0.4609375 3.609375 C-1.09257812 4.31578125 -1.72421875 5.0221875 -2.375 5.75 C-3.00148437 6.44609375 -3.62796875 7.1421875 -4.2734375 7.859375 C-5.88443812 9.85672418 -6.95290044 11.67093742 -8 14 C-8.33 14.66 -8.66 15.32 -9 16 C-9.66 15.34 -10.32 14.68 -11 14 C-10.86126348 9.74541334 -7.84182675 7.54403586 -4.9375 4.75 C-4.01839844 3.85796875 -3.09929687 2.9659375 -2.15234375 2.046875 C-1.44207031 1.37140625 -0.73179687 0.6959375 0 0 Z " fill="#4D7A9E" transform="translate(238,163)"/>
<path d="M0 0 C0.99 0.33 1.98 0.66 3 1 C2.67 2.32 2.34 3.64 2 5 C3.11375 4.79375 4.2275 4.5875 5.375 4.375 C6.57125 4.25125 7.7675 4.1275 9 4 C9.66 4.66 10.32 5.32 11 6 C10.67 6.66 10.34 7.32 10 8 C10.99 8.33 11.98 8.66 13 9 C7.72250715 8.46148032 3.74354436 7.22656164 -1 5 C-0.67 3.35 -0.34 1.7 0 0 Z " fill="#436A8D" transform="translate(57,131)"/>
<path d="M0 0 C0.99 0.33 1.98 0.66 3 1 C3.66 0.67 4.32 0.34 5 0 C5.66 2.97 6.32 5.94 7 9 C6.01 9.495 6.01 9.495 5 10 C2.41539709 8.70769855 2.10055964 7.64134313 1 5 C0.62331656 3.34259285 0.27942455 1.67654729 0 0 Z " fill="#153F65" transform="translate(26,97)"/>
<path d="M0 0 C0.99 0.495 0.99 0.495 2 1 C1.67 2.32 1.34 3.64 1 5 C2.32 5.66 3.64 6.32 5 7 C5 8.32 5 9.64 5 11 C3.68 10.67 2.36 10.34 1 10 C0.67 10.99 0.34 11.98 0 13 C0 8.71 0 4.42 0 0 Z " fill="#234664" transform="translate(188,23)"/>
<path d="M0 0 C1.125 3.75 1.125 3.75 0 6 C0.66 6 1.32 6 2 6 C1.125 10.75 1.125 10.75 0 13 C-0.66 13 -1.32 13 -2 13 C-1.85915204 11.20793453 -1.71216299 9.41635083 -1.5625 7.625 C-1.48128906 6.62726562 -1.40007812 5.62953125 -1.31640625 4.6015625 C-1 2 -1 2 0 0 Z " fill="#C69450" transform="translate(220,53)"/>
<path d="M0 0 C0.33 0.99 0.66 1.98 1 3 C-1.64 5.31 -4.28 7.62 -7 10 C-7.66 9.67 -8.32 9.34 -9 9 C-6.03 6.03 -3.06 3.06 0 0 Z " fill="#406C8D" transform="translate(108,209)"/>
<path d="M0 0 C0.33 0.99 0.66 1.98 1 3 C0.01 3.33 -0.98 3.66 -2 4 C-2.33 4.66 -2.66 5.32 -3 6 C-4.32 4.02 -5.64 2.04 -7 0 C-4.3333581 -1.33332095 -2.83319697 -0.67102033 0 0 Z " fill="#24507B" transform="translate(41,116)"/>
<path d="M0 0 C1.485 0.99 1.485 0.99 3 2 C2.67 2.66 2.34 3.32 2 4 C3.65 4 5.3 4 7 4 C7 5.32 7 6.64 7 8 C6.34 8 5.68 8 5 8 C4.67 8.66 4.34 9.32 4 10 C3.32845067 8.71086513 2.66291141 7.41859796 2 6.125 C1.62875 5.40570313 1.2575 4.68640625 0.875 3.9453125 C0 2 0 2 0 0 Z " fill="#2A557A" transform="translate(27,102)"/>
<path d="M0 0 C0.99 0 1.98 0 3 0 C2.67257813 0.56203125 2.34515625 1.1240625 2.0078125 1.703125 C0.88214506 4.26859964 0.7931889 5.96842277 0.875 8.75 C0.89304688 9.54921875 0.91109375 10.3484375 0.9296875 11.171875 C0.95289063 11.77515625 0.97609375 12.3784375 1 13 C0.01 13.495 0.01 13.495 -1 14 C-1.02685938 11.85423363 -1.04633088 9.70837355 -1.0625 7.5625 C-1.07410156 6.36753906 -1.08570313 5.17257813 -1.09765625 3.94140625 C-1 1 -1 1 0 0 Z " fill="#1C4462" transform="translate(145,26)"/>
<path d="M0 0 C0.66 0.33 1.32 0.66 2 1 C-0.64960955 4.63094642 -3.01824456 6.89851796 -7 9 C-7.66 8.34 -8.32 7.68 -9 7 C-8.071875 6.401875 -7.14375 5.80375 -6.1875 5.1875 C-3.79745282 3.54727155 -1.91529747 2.1281083 0 0 Z " fill="#6A90AE" transform="translate(80,86)"/>
<path d="M0 0 C0.66 0.66 1.32 1.32 2 2 C0.02 4.31 -1.96 6.62 -4 9 C-4.99 8.67 -5.98 8.34 -7 8 C-6.360625 7.7525 -5.72125 7.505 -5.0625 7.25 C-2.82123176 6.20265017 -2.82123176 6.20265017 -2.375 4 C-2.189375 3.01 -2.189375 3.01 -2 2 C-1.34 1.34 -0.68 0.68 0 0 Z " fill="#BA8743" transform="translate(285,31)"/>
<path d="M0 0 C0.33 0.99 0.66 1.98 1 3 C1.99 3.33 2.98 3.66 4 4 C2.71349294 4.69710731 1.42059335 5.38242876 0.125 6.0625 C-0.95394531 6.63677734 -0.95394531 6.63677734 -2.0546875 7.22265625 C-2.69664062 7.47917969 -3.33859375 7.73570313 -4 8 C-4.66 7.67 -5.32 7.34 -6 7 C-4.02 4.69 -2.04 2.38 0 0 Z " fill="#B98033" transform="translate(243,28)"/>
<path d="M0 0 C0.99 0 1.98 0 3 0 C1.95125002 2.62187494 1.35068687 3.79371361 -1.125 5.25 C-1.74375 5.4975 -2.3625 5.745 -3 6 C-2.42655063 3.13275314 -2.1385485 2.1385485 0 0 Z " fill="#295070" transform="translate(109,282)"/>
<path d="M0 0 C1.32 0.33 2.64 0.66 4 1 C4 1.66 4 2.32 4 3 C3.01 3.33 2.02 3.66 1 4 C-0.21869929 6.50447516 -0.21869929 6.50447516 -1 9 C-2.0326802 6.21176345 -2.04509293 5.1322726 -1.0625 2.25 C-0.711875 1.5075 -0.36125 0.765 0 0 Z " fill="#5C7B93" transform="translate(26,60)"/>
<path d="M0 0 C2.125 0.375 2.125 0.375 4 1 C2.35 2.65 0.7 4.3 -1 6 C-1.625 4.125 -1.625 4.125 -2 2 C-1.34 1.34 -0.68 0.68 0 0 Z " fill="#224767" transform="translate(29,289)"/>
<path d="M0 0 C0.99 0.33 1.98 0.66 3 1 C2.6875 2.875 2.6875 2.875 2 5 C1.01 5.66 0.02 6.32 -1 7 C-0.67 4.69 -0.34 2.38 0 0 Z " fill="#3E75A0" transform="translate(206,95)"/>
<path d="M0 0 C0.66 0.33 1.32 0.66 2 1 C-1.5 5.875 -1.5 5.875 -6 7 C-4.02 4.69 -2.04 2.38 0 0 Z " fill="#DFE2E1" transform="translate(91,304)"/>
<path d="M0 0 C0.66 0 1.32 0 2 0 C1.75 1.875 1.75 1.875 1 4 C-1.0625 5.25 -1.0625 5.25 -3 6 C-2.42655063 3.13275314 -2.1385485 2.1385485 0 0 Z " fill="#32638F" transform="translate(242,159)"/>
</svg>
